<svg xmlns="http://www.w3.org/2000/svg" viewBox="0 0 24 30" x="0px" y="0px"><title>Verified, Basic, Essential, </title><g data-name="Layer 129"><path d="M22,12c0-1-.94-1.6-1.69-2.05a6,6,0,0,1-.67-.44,5.13,5.13,0,0,1,.29-.79c.33-.8.75-1.79.16-2.6s-1.67-.73-2.54-.65a5.91,5.91,0,0,1-.83,0c-.07-.18-.16-.55-.22-.79-.19-.85-.44-1.91-1.41-2.22s-1.75.39-2.4.95A6,6,0,0,1,12,4a6,6,0,0,1-.69-.54c-.65-.56-1.46-1.26-2.4-.95S7.69,3.86,7.5,4.71c-.06.24-.15.61-.22.79a5.91,5.91,0,0,1-.83,0c-.87-.08-1.94-.17-2.54.65s-.17,1.8.16,2.6a5.13,5.13,0,0,1,.29.79,6,6,0,0,1-.67.44C2.94,10.4,2,11,2,12s.94,1.6,1.69,2.05a6,6,0,0,1,.67.44,5.13,5.13,0,0,1-.29.79c-.33.8-.75,1.79-.16,2.6s1.67.73,2.54.65a5.91,5.91,0,0,1,.83,0c.07.18.16.55.22.79.19.85.44,1.91,1.41,2.22s1.75-.39,2.4-1A6,6,0,0,1,12,20a6,6,0,0,1,.69.54,3.23,3.23,0,0,0,1.93,1,1.6,1.6,0,0,0,.47-.08c1-.31,1.22-1.37,1.41-2.22.06-.24.15-.61.22-.79a5.91,5.91,0,0,1,.83,0c.87.08,1.94.17,2.54-.65s.17-1.8-.16-2.6a5.13,5.13,0,0,1-.29-.79,6,6,0,0,1,.67-.44C21.06,13.6,22,13,22,12Zm-6.22-1.88-4,5a1,1,0,0,1-.72.38H11a1,1,0,0,1-.71-.29l-2-2a1,1,0,0,1,1.42-1.42L10.92,13l3.3-4.12a1,1,0,0,1,1.56,1.24Z"/></g><text x="0" y="39" fill="#000000" font-size="5px" font-weight="bold" font-family="'Helvetica Neue', Helvetica, Arial-Unicode, Arial, Sans-serif">Created by Caesar Rizky Kurniawan</text><text x="0" y="44" fill="#000000" font-size="5px" font-weight="bold" font-family="'Helvetica Neue', Helvetica, Arial-Unicode, Arial, Sans-serif">from the Noun Project</text></svg>